{
    "asset" : {
        "generator" : "Khronos glTF Blender I/O v1.4.40",
        "version" : "2.0"
    },
    "scene" : 0,
    "scenes" : [
        {
            "name" : "Scene",
            "nodes" : [
                0,
                1,
                2,
                3,
                4,
                5,
                6,
                7
            ]
        }
    ],
    "nodes" : [
        {
            "name" : "Camera",
            "rotation" : [
                0.483536034822464,
                0.33687159419059753,
                -0.20870360732078552,
                0.7804827094078064
            ],
            "translation" : [
                7.358891487121582,
                4.958309173583984,
                6.925790786743164
            ]
        },
        {
            "mesh" : 0,
            "name" : "\u041f\u043b\u043e\u0441\u043a\u043e\u0441\u0442\u044c",
            "rotation" : [
                0,
                0.9596830606460571,
                0,
                0.28108471632003784
            ],
            "scale" : [
                1.5170742273330688,
                0.8283355832099915,
                2.5093374252319336
            ],
            "translation" : [
                0.13606956601142883,
                0.3593807816505432,
                -0.9690388441085815
            ]
        },
        {
            "mesh" : 1,
            "name" : "\u0426\u0438\u043b\u0438\u043d\u0434\u0440",
            "rotation" : [
                0,
                0.9596830606460571,
                0,
                0.28108471632003784
            ],
            "scale" : [
                0.2622651159763336,
                0.7902644872665405,
                0.29876023530960083
            ],
            "translation" : [
                -1.5987234115600586,
                1.2904832363128662,
                0.015114754438400269
            ]
        },
        {
            "mesh" : 2,
            "name" : "\u0426\u0438\u043b\u0438\u043d\u0434\u0440.001",
            "rotation" : [
                0,
                0.9596830606460571,
                0,
                0.28108471632003784
            ],
            "scale" : [
                0.2622651159763336,
                0.7902644872665405,
                0.29876023530960083
            ],
            "translation" : [
                0.07204380631446838,
                1.359768033027649,
                1.116517424583435
            ]
        },
        {
            "mesh" : 3,
            "name" : "\u0426\u0438\u043b\u0438\u043d\u0434\u0440.002",
            "rotation" : [
                0,
                0.9596830606460571,
                0,
                0.28108471632003784
            ],
            "scale" : [
                0.2622651159763336,
                0.7902644872665405,
                0.29876023530960083
            ],
            "translation" : [
                1.3492674827575684,
                1.2784099578857422,
                -1.2925169467926025
            ]
        },
        {
            "mesh" : 4,
            "name" : "\u041f\u043b\u043e\u0441\u043a\u043e\u0441\u0442\u044c.001",
            "rotation" : [
                0,
                0.9596830606460571,
                0,
                0.28108471632003784
            ],
            "scale" : [
                1.44451105594635,
                1.54727041721344,
                2.3508810997009277
            ],
            "translation" : [
                0.12308448553085327,
                2.082911491394043,
                -0.9240224361419678
            ]
        },
        {
            "mesh" : 5,
            "name" : "\u0426\u0438\u043b\u0438\u043d\u0434\u0440.003",
            "rotation" : [
                0,
                0.9596830606460571,
                0,
                0.28108471632003784
            ],
            "scale" : [
                0.2622651159763336,
                0.4731539785861969,
                0.29876023530960083
            ],
            "translation" : [
                -0.5306901335716248,
                2.6579842567443848,
                -0.32298049330711365
            ]
        },
        {
            "mesh" : 6,
            "name" : "\u0426\u0438\u043b\u0438\u043d\u0434\u0440.004",
            "rotation" : [
                0,
                0.9596830606460571,
                0,
                0.28108471632003784
            ],
            "scale" : [
                0.9717515707015991,
                0.8851567506790161,
                1.0843220949172974
            ],
            "translation" : [
                -0.6035346388816833,
                4.019964218139648,
                -0.2938922345638275
            ]
        }
    ],
    "materials" : [
        {
            "doubleSided" : true,
            "name" : "\u041c\u0430\u0442\u0435\u0440\u0438\u0430\u043b.034",
            "pbrMetallicRoughness" : {
                "baseColorTexture" : {
                    "index" : 0,
                    "texCoord" : 0
                },
                "metallicFactor" : 0,
                "roughnessFactor" : 0.5
            }
        },
        {
            "doubleSided" : true,
            "name" : "\u041c\u0430\u0442\u0435\u0440\u0438\u0430\u043b.035",
            "pbrMetallicRoughness" : {
                "baseColorTexture" : {
                    "index" : 1,
                    "texCoord" : 0
                },
                "metallicFactor" : 0,
                "roughnessFactor" : 0.5
            }
        },
        {
            "doubleSided" : true,
            "name" : "\u041c\u0430\u0442\u0435\u0440\u0438\u0430\u043b.036",
            "pbrMetallicRoughness" : {
                "baseColorTexture" : {
                    "index" : 2,
                    "texCoord" : 0
                },
                "metallicFactor" : 0,
                "roughnessFactor" : 0.5
            }
        },
        {
            "doubleSided" : true,
            "name" : "\u041c\u0430\u0442\u0435\u0440\u0438\u0430\u043b.037",
            "pbrMetallicRoughness" : {
                "baseColorTexture" : {
                    "index" : 3,
                    "texCoord" : 0
                },
                "metallicFactor" : 0,
                "roughnessFactor" : 0.5
            }
        },
        {
            "doubleSided" : true,
            "name" : "\u041c\u0430\u0442\u0435\u0440\u0438\u0430\u043b.038",
            "pbrMetallicRoughness" : {
                "baseColorTexture" : {
                    "index" : 4,
                    "texCoord" : 0
                },
                "metallicFactor" : 0,
                "roughnessFactor" : 0.5
            }
        },
        {
            "doubleSided" : true,
            "name" : "\u041c\u0430\u0442\u0435\u0440\u0438\u0430\u043b.039",
            "pbrMetallicRoughness" : {
                "baseColorTexture" : {
                    "index" : 5,
                    "texCoord" : 0
                },
                "metallicFactor" : 0,
                "roughnessFactor" : 0.5
            }
        },
        {
            "doubleSided" : true,
            "name" : "\u041c\u0430\u0442\u0435\u0440\u0438\u0430\u043b.040",
            "pbrMetallicRoughness" : {
                "baseColorTexture" : {
                    "index" : 6,
                    "texCoord" : 0
                },
                "metallicFactor" : 0,
                "roughnessFactor" : 0.5
            }
        }
    ],
    "meshes" : [
        {
            "name" : "\u041f\u043b\u043e\u0441\u043a\u043e\u0441\u0442\u044c.011",
            "primitives" : [
                {
                    "attributes" : {
                        "POSITION" : 0,
                        "NORMAL" : 1,
                        "TEXCOORD_0" : 2
                    },
                    "indices" : 3,
                    "material" : 0
                }
            ]
        },
        {
            "name" : "\u0426\u0438\u043b\u0438\u043d\u0434\u0440.023",
            "primitives" : [
                {
                    "attributes" : {
                        "POSITION" : 4,
                        "NORMAL" : 5,
                        "TEXCOORD_0" : 6
                    },
                    "indices" : 7,
                    "material" : 1
                }
            ]
        },
        {
            "name" : "\u0426\u0438\u043b\u0438\u043d\u0434\u0440.024",
            "primitives" : [
                {
                    "attributes" : {
                        "POSITION" : 8,
                        "NORMAL" : 9,
                        "TEXCOORD_0" : 10
                    },
                    "indices" : 7,
                    "material" : 2
                }
            ]
        },
        {
            "name" : "\u0426\u0438\u043b\u0438\u043d\u0434\u0440.025",
            "primitives" : [
                {
                    "attributes" : {
                        "POSITION" : 11,
                        "NORMAL" : 12,
                        "TEXCOORD_0" : 13
                    },
                    "indices" : 7,
                    "material" : 3
                }
            ]
        },
        {
            "name" : "\u041f\u043b\u043e\u0441\u043a\u043e\u0441\u0442\u044c.012",
            "primitives" : [
                {
                    "attributes" : {
                        "POSITION" : 14,
                        "NORMAL" : 15,
                        "TEXCOORD_0" : 16
                    },
                    "indices" : 17,
                    "material" : 4
                }
            ]
        },
        {
            "name" : "\u0426\u0438\u043b\u0438\u043d\u0434\u0440.026",
            "primitives" : [
                {
                    "attributes" : {
                        "POSITION" : 18,
                        "NORMAL" : 19,
                        "TEXCOORD_0" : 20
                    },
                    "indices" : 7,
                    "material" : 5
                }
            ]
        },
        {
            "name" : "\u0426\u0438\u043b\u0438\u043d\u0434\u0440.027",
            "primitives" : [
                {
                    "attributes" : {
                        "POSITION" : 21,
                        "NORMAL" : 22,
                        "TEXCOORD_0" : 23
                    },
                    "indices" : 24,
                    "material" : 6
                }
            ]
        }
    ],
    "textures" : [
        {
            "sampler" : 0,
            "source" : 0
        },
        {
            "sampler" : 0,
            "source" : 1
        },
        {
            "sampler" : 0,
            "source" : 1
        },
        {
            "sampler" : 0,
            "source" : 1
        },
        {
            "sampler" : 0,
            "source" : 0
        },
        {
            "sampler" : 0,
            "source" : 1
        },
        {
            "sampler" : 0,
            "source" : 0
        }
    ],
    "images" : [
        {
            "bufferView" : 4,
            "mimeType" : "image/png",
            "name" : "13"
        },
        {
            "bufferView" : 9,
            "mimeType" : "image/png",
            "name" : "7325fa084687a0300f697a0e4e331995"
        }
    ],
    "accessors" : [
        {
            "bufferView" : 0,
            "componentType" : 5126,
            "count" : 473,
            "max" : [
                1,
                0.17962126433849335,
                1
            ],
            "min" : [
                -1,
                0,
                -1
            ],
            "type" : "VEC3"
        },
        {
            "bufferView" : 1,
            "componentType" : 5126,
            "count" : 473,
            "type" : "VEC3"
        },
        {
            "bufferView" : 2,
            "componentType" : 5126,
            "count" : 473,
            "type" : "VEC2"
        },
        {
            "bufferView" : 3,
            "componentType" : 5123,
            "count" : 660,
            "type" : "SCALAR"
        },
        {
            "bufferView" : 5,
            "componentType" : 5126,
            "count" : 273,
            "max" : [
                1,
                1,
                1
            ],
            "min" : [
                -1,
                -1,
                -1
            ],
            "type" : "VEC3"
        },
        {
            "bufferView" : 6,
            "componentType" : 5126,
            "count" : 273,
            "type" : "VEC3"
        },
        {
            "bufferView" : 7,
            "componentType" : 5126,
            "count" : 273,
            "type" : "VEC2"
        },
        {
            "bufferView" : 8,
            "componentType" : 5123,
            "count" : 372,
            "type" : "SCALAR"
        },
        {
            "bufferView" : 10,
            "componentType" : 5126,
            "count" : 273,
            "max" : [
                1,
                1,
                1
            ],
            "min" : [
                -1,
                -1,
                -1
            ],
            "type" : "VEC3"
        },
        {
            "bufferView" : 11,
            "componentType" : 5126,
            "count" : 273,
            "type" : "VEC3"
        },
        {
            "bufferView" : 12,
            "componentType" : 5126,
            "count" : 273,
            "type" : "VEC2"
        },
        {
            "bufferView" : 13,
            "componentType" : 5126,
            "count" : 273,
            "max" : [
                1,
                1,
                1
            ],
            "min" : [
                -1,
                -1,
                -1
            ],
            "type" : "VEC3"
        },
        {
            "bufferView" : 14,
            "componentType" : 5126,
            "count" : 273,
            "type" : "VEC3"
        },
        {
            "bufferView" : 15,
            "componentType" : 5126,
            "count" : 273,
            "type" : "VEC2"
        },
        {
            "bufferView" : 16,
            "componentType" : 5126,
            "count" : 182,
            "max" : [
                1.0003794431686401,
                0.07110466808080673,
                1.00015389919281
            ],
            "min" : [
                -1,
                0,
                -1
            ],
            "type" : "VEC3"
        },
        {
            "bufferView" : 17,
            "componentType" : 5126,
            "count" : 182,
            "type" : "VEC3"
        },
        {
            "bufferView" : 18,
            "componentType" : 5126,
            "count" : 182,
            "type" : "VEC2"
        },
        {
            "bufferView" : 19,
            "componentType" : 5123,
            "count" : 240,
            "type" : "SCALAR"
        },
        {
            "bufferView" : 20,
            "componentType" : 5126,
            "count" : 273,
            "max" : [
                1,
                1,
                1
            ],
            "min" : [
                -1,
                -1,
                -1
            ],
            "type" : "VEC3"
        },
        {
            "bufferView" : 21,
            "componentType" : 5126,
            "count" : 273,
            "type" : "VEC3"
        },
        {
            "bufferView" : 22,
            "componentType" : 5126,
            "count" : 273,
            "type" : "VEC2"
        },
        {
            "bufferView" : 23,
            "componentType" : 5126,
            "count" : 351,
            "max" : [
                1,
                1,
                1
            ],
            "min" : [
                -1,
                -1,
                -1
            ],
            "type" : "VEC3"
        },
        {
            "bufferView" : 24,
            "componentType" : 5126,
            "count" : 351,
            "type" : "VEC3"
        },
        {
            "bufferView" : 25,
            "componentType" : 5126,
            "count" : 351,
            "type" : "VEC2"
        },
        {
            "bufferView" : 26,
            "componentType" : 5123,
            "count" : 450,
            "type" : "SCALAR"
        }
    ],
    "bufferViews" : [
        {
            "buffer" : 0,
            "byteLength" : 5676,
            "byteOffset" : 0
        },
        {
            "buffer" : 0,
            "byteLength" : 5676,
            "byteOffset" : 5676
        },
        {
            "buffer" : 0,
            "byteLength" : 3784,
            "byteOffset" : 11352
        },
        {
            "buffer" : 0,
            "byteLength" : 1320,
            "byteOffset" : 15136
        },
        {
            "buffer" : 0,
            "byteLength" : 17816,
            "byteOffset" : 16456
        },
        {
            "buffer" : 0,
            "byteLength" : 3276,
            "byteOffset" : 34272
        },
        {
            "buffer" : 0,
            "byteLength" : 3276,
            "byteOffset" : 37548
        },
        {
            "buffer" : 0,
            "byteLength" : 2184,
            "byteOffset" : 40824
        },
        {
            "buffer" : 0,
            "byteLength" : 744,
            "byteOffset" : 43008
        },
        {
            "buffer" : 0,
            "byteLength" : 1176267,
            "byteOffset" : 43752
        },
        {
            "buffer" : 0,
            "byteLength" : 3276,
            "byteOffset" : 1220020
        },
        {
            "buffer" : 0,
            "byteLength" : 3276,
            "byteOffset" : 1223296
        },
        {
            "buffer" : 0,
            "byteLength" : 2184,
            "byteOffset" : 1226572
        },
        {
            "buffer" : 0,
            "byteLength" : 3276,
            "byteOffset" : 1228756
        },
        {
            "buffer" : 0,
            "byteLength" : 3276,
            "byteOffset" : 1232032
        },
        {
            "buffer" : 0,
            "byteLength" : 2184,
            "byteOffset" : 1235308
        },
        {
            "buffer" : 0,
            "byteLength" : 2184,
            "byteOffset" : 1237492
        },
        {
            "buffer" : 0,
            "byteLength" : 2184,
            "byteOffset" : 1239676
        },
        {
            "buffer" : 0,
            "byteLength" : 1456,
            "byteOffset" : 1241860
        },
        {
            "buffer" : 0,
            "byteLength" : 480,
            "byteOffset" : 1243316
        },
        {
            "buffer" : 0,
            "byteLength" : 3276,
            "byteOffset" : 1243796
        },
        {
            "buffer" : 0,
            "byteLength" : 3276,
            "byteOffset" : 1247072
        },
        {
            "buffer" : 0,
            "byteLength" : 2184,
            "byteOffset" : 1250348
        },
        {
            "buffer" : 0,
            "byteLength" : 4212,
            "byteOffset" : 1252532
        },
        {
            "buffer" : 0,
            "byteLength" : 4212,
            "byteOffset" : 1256744
        },
        {
            "buffer" : 0,
            "byteLength" : 2808,
            "byteOffset" : 1260956
        },
        {
            "buffer" : 0,
            "byteLength" : 900,
            "byteOffset" : 1263764
        }
    ],
    "samplers" : [
        {
            "magFilter" : 9729,
            "minFilter" : 9986
        }
    ],
    "buffers" : [
        {
            "byteLength" : 1264664,
            "uri" : "data:application/octet-stream;base64,"
        }
    ]
}
