{
    "asset" : {
        "generator" : "Khronos glTF Blender I/O v1.4.40",
        "version" : "2.0"
    },
    "scene" : 0,
    "scenes" : [
        {
            "name" : "Scene",
            "nodes" : [
                0,
                1,
                2
            ]
        }
    ],
    "nodes" : [
        {
            "name" : "Camera",
            "rotation" : [
                0.483536034822464,
                0.33687159419059753,
                -0.20870360732078552,
                0.7804827094078064
            ],
            "translation" : [
                7.358891487121582,
                4.958309173583984,
                6.925790786743164
            ]
        },
        {
            "mesh" : 0,
            "name" : "\u0426\u0438\u043b\u0438\u043d\u0434\u0440",
            "scale" : [
                0.2775411307811737,
                1.527160882949829,
                0.2847580015659332
            ],
            "translation" : [
                0.005169601645320654,
                1.5894145965576172,
                0
            ]
        },
        {
            "mesh" : 1,
            "name" : "\u041f\u043b\u043e\u0441\u043a\u043e\u0441\u0442\u044c",
            "scale" : [
                1.475523829460144,
                1,
                1.475523829460144
            ],
            "translation" : [
                -0.0009930296801030636,
                0,
                0
            ]
        }
    ],
    "materials" : [
        {
            "name" : "\u041c\u0430\u0442\u0435\u0440\u0438\u0430\u043b.032",
            "pbrMetallicRoughness" : {
                "baseColorTexture" : {
                    "index" : 0,
                    "texCoord" : 0
                },
                "metallicFactor" : 0,
                "roughnessFactor" : 0.5
            }
        },
        {
            "doubleSided" : true,
            "name" : "\u041c\u0430\u0442\u0435\u0440\u0438\u0430\u043b.033",
            "pbrMetallicRoughness" : {
                "baseColorTexture" : {
                    "index" : 1,
                    "texCoord" : 0
                },
                "metallicFactor" : 0,
                "roughnessFactor" : 0.5
            }
        }
    ],
    "meshes" : [
        {
            "name" : "\u0426\u0438\u043b\u0438\u043d\u0434\u0440.022",
            "primitives" : [
                {
                    "attributes" : {
                        "POSITION" : 0,
                        "NORMAL" : 1,
                        "TEXCOORD_0" : 2
                    },
                    "indices" : 3,
                    "material" : 0
                }
            ]
        },
        {
            "name" : "\u041f\u043b\u043e\u0441\u043a\u043e\u0441\u0442\u044c.010",
            "primitives" : [
                {
                    "attributes" : {
                        "POSITION" : 4,
                        "NORMAL" : 5,
                        "TEXCOORD_0" : 6
                    },
                    "indices" : 7,
                    "material" : 1
                }
            ]
        }
    ],
    "textures" : [
        {
            "sampler" : 0,
            "source" : 0
        },
        {
            "sampler" : 0,
            "source" : 1
        }
    ],
    "images" : [
        {
            "bufferView" : 4,
            "mimeType" : "image/png",
            "name" : "12"
        },
        {
            "bufferView" : 9,
            "mimeType" : "image/png",
            "name" : "13"
        }
    ],
    "accessors" : [
        {
            "bufferView" : 0,
            "componentType" : 5126,
            "count" : 272,
            "max" : [
                1,
                1,
                1
            ],
            "min" : [
                -1,
                -1,
                -1
            ],
            "type" : "VEC3"
        },
        {
            "bufferView" : 1,
            "componentType" : 5126,
            "count" : 272,
            "type" : "VEC3"
        },
        {
            "bufferView" : 2,
            "componentType" : 5126,
            "count" : 272,
            "type" : "VEC2"
        },
        {
            "bufferView" : 3,
            "componentType" : 5123,
            "count" : 372,
            "type" : "SCALAR"
        },
        {
            "bufferView" : 5,
            "componentType" : 5126,
            "count" : 24,
            "max" : [
                1,
                0.08523962646722794,
                1
            ],
            "min" : [
                -1,
                0,
                -1
            ],
            "type" : "VEC3"
        },
        {
            "bufferView" : 6,
            "componentType" : 5126,
            "count" : 24,
            "type" : "VEC3"
        },
        {
            "bufferView" : 7,
            "componentType" : 5126,
            "count" : 24,
            "type" : "VEC2"
        },
        {
            "bufferView" : 8,
            "componentType" : 5123,
            "count" : 36,
            "type" : "SCALAR"
        }
    ],
    "bufferViews" : [
        {
            "buffer" : 0,
            "byteLength" : 3264,
            "byteOffset" : 0
        },
        {
            "buffer" : 0,
            "byteLength" : 3264,
            "byteOffset" : 3264
        },
        {
            "buffer" : 0,
            "byteLength" : 2176,
            "byteOffset" : 6528
        },
        {
            "buffer" : 0,
            "byteLength" : 744,
            "byteOffset" : 8704
        },
        {
            "buffer" : 0,
            "byteLength" : 1176267,
            "byteOffset" : 9448
        },
        {
            "buffer" : 0,
            "byteLength" : 288,
            "byteOffset" : 1185716
        },
        {
            "buffer" : 0,
            "byteLength" : 288,
            "byteOffset" : 1186004
        },
        {
            "buffer" : 0,
            "byteLength" : 192,
            "byteOffset" : 1186292
        },
        {
            "buffer" : 0,
            "byteLength" : 72,
            "byteOffset" : 1186484
        },
        {
            "buffer" : 0,
            "byteLength" : 17816,
            "byteOffset" : 1186556
        }
    ],
    "samplers" : [
        {
            "magFilter" : 9729,
            "minFilter" : 9986
        }
    ],
    "buffers" : [
        {
            "byteLength" : 1204372,
            "uri" : "data:application/octet-stream;base64,"
        }
    ]
}
